<?xml version="1.0" encoding="utf-8"?>
<!-- Generator: Adobe Illustrator 26.5.0, SVG Export Plug-In . SVG Version: 6.00 Build 0)  -->
<svg version="1.0" id="katman_1" xmlns="http://www.w3.org/2000/svg" xmlns:xlink="http://www.w3.org/1999/xlink" x="0px" y="0px"
	 viewBox="0 0 1190.55 841.89" style="enable-background:new 0 0 1190.55 841.89;" xml:space="preserve">
<style type="text/css">
	.st0{fill:#AE5917;}
	.st1{fill:#D11439;}
	.st2{fill:#F38F2E;}
	.st3{fill:#4B4445;}
	.st4{fill:#DE8D57;}
</style>
<path class="st0" d="M214.12,301.24c-4.93,1.56-8.49,6.17-8.49,11.6c0,6.71,5.45,12.16,12.16,12.16h32.96
	c6.93,0,13.02,5.69,12.8,12.58c-0.12,3.19-1.47,6.08-3.58,8.23c-2.2,2.18-5.26,3.54-8.59,3.54H121.52v0.2
	c-2.57,0.42-4.84,1.61-6.6,3.37c-2.18,2.18-3.55,5.21-3.55,8.57c0,6.02,4.38,11.04,10.15,11.99v0.17h59.71
	c6.93,0,13.02,5.69,12.8,12.58c-0.09,3.19-1.46,6.1-3.56,8.2c-2.18,2.21-5.24,3.56-8.6,3.56H157.3c-3.36,0-6.42,1.39-8.62,3.58
	c-2.18,2.2-3.55,5.26-3.55,8.61c0,6.71,5.44,12.14,12.17,12.14h52.19c7,0,13.07,5.76,12.76,12.73c-0.15,3.16-1.47,5.97-3.55,8.08
	c-2.2,2.2-5.26,3.54-8.62,3.54H65.91c-3.41,0-6.42,1.34-8.62,3.58c-2.2,2.2-3.58,5.24-3.58,8.57c0,6.75,5.46,12.19,12.2,12.19h79.28
	v0.15c5.89,0.81,10.45,5.87,10.45,12.01c0,3.36-1.37,6.38-3.58,8.59c-1.82,1.83-4.18,3.08-6.88,3.43v0.12h-57.3
	c-3.38,0-6.42,1.36-8.64,3.57c-2.18,2.21-3.55,5.26-3.55,8.62c0,6.73,5.44,12.2,12.2,12.2h126.79c6.91,0,12.98,5.65,12.76,12.55
	c-0.13,3.19-1.46,6.07-3.58,8.2c-2.2,2.18-5.26,3.56-8.6,3.56h-36.64c-3.36,0-6.4,1.37-8.6,3.58c-2.2,2.2-3.58,5.23-3.58,8.62
	c0,6.7,5.46,12.13,12.17,12.13h80.14c6.7,0,12.14,5.45,12.14,12.2c0,3.38-1.38,6.39-3.55,8.59c-2.2,2.23-5.23,3.58-8.59,3.58h-34.76
	c-6.79,0-12.27,5.51-12.27,12.29c0,5.43,3.5,10.02,8.38,11.65h222.7l32.52-315.39H214.12z M236.48,491.82
	c-2.2,2.2-5.23,3.54-8.61,3.54h-42.86c-6.73,0-12.2-5.45-12.2-12.14c0-3.35,1.37-6.39,3.61-8.61c2.2-2.18,5.21-3.58,8.59-3.58h42.86
	c6.73,0,12.16,5.45,12.16,12.19C240.04,486.58,238.72,489.59,236.48,491.82z M258.49,394.49c-2.2,2.21-5.26,3.58-8.62,3.58h-32.12
	c-6.75,0-12.18-5.46-12.18-12.14c0-3.37,1.39-6.41,3.58-8.62c2.2-2.22,5.26-3.58,8.61-3.58h32.12c6.71,0,12.17,5.46,12.17,12.19
	C262.05,389.25,260.68,392.31,258.49,394.49z M297.02,335.31c-1.66,1.58-3.91,2.5-6.35,2.5c-5.22,0-9.43-4.21-9.43-9.4l0.07-1.1
	c0.53-4.68,4.5-8.32,9.35-8.32c5.18,0,9.4,4.21,9.4,9.42C300.06,331.12,298.88,333.59,297.02,335.31z M428.4,335.31
	c-1.67,1.58-3.92,2.5-6.37,2.5c-5.22,0-9.42-4.21-9.42-9.4l0.07-1.1c0.53-4.68,4.5-8.32,9.35-8.32c5.19,0,9.4,4.21,9.4,9.42
	C431.43,331.12,430.25,333.59,428.4,335.31z"/>
<path class="st1" d="M97.87,422.4h19.53c6.71,0,12.16-5.45,12.16-12.17c0-6.72-5.45-12.16-12.16-12.16H97.87
	c-6.72,0-12.17,5.45-12.17,12.16C85.7,416.94,91.15,422.4,97.87,422.4"/>
<path class="st2" d="M157.2,325.09h19.54c6.72,0,12.16-5.44,12.16-12.16c0-5.43-3.57-10.05-8.48-11.61h-26.9
	c-4.93,1.56-8.48,6.18-8.48,11.61C145.04,319.65,150.48,325.09,157.2,325.09"/>
<path class="st3" d="M137.73,543.96H118.2c-6.71,0-12.16,5.44-12.16,12.16c0,6.72,5.45,12.16,12.16,12.16h19.53
	c6.72,0,12.17-5.44,12.17-12.16C149.9,549.4,144.46,543.96,137.73,543.96"/>
<path class="st3" d="M186.95,592.94h-19c-6.53,0-11.83,5.3-11.83,11.83c0,6.53,5.3,11.83,11.83,11.83h19
	c6.52,0,11.82-5.3,11.82-11.83C198.77,598.23,193.47,592.94,186.95,592.94"/>
<path class="st3" d="M422.02,332.62c-3.36,0-6.1-2.73-6.1-6.09v-36.21c0-32.84-26.31-59.96-58.66-60.45l-0.92-0.01
	c-32.86,0-59.59,26.74-59.59,59.58v37.09c0,3.36-2.74,6.09-6.1,6.09c-3.36,0-6.1-2.73-6.1-6.09v-36.14
	c0-39.72,31.89-72.35,71.08-72.72h0.7c39.59,0,71.79,32.2,71.79,71.78v37.09C428.12,329.88,425.39,332.62,422.02,332.62"/>
<polygon class="st4" points="475.34,301.24 442.82,616.63 500.72,597.93 "/>
<g>
	<path d="M582.28,391.64c-8.32,0-15.83-1.84-22.51-5.53c-6.69-3.69-11.97-9.06-15.84-16.12c-3.87-7.06-5.81-15.66-5.81-25.81
		c0-10.19,1.94-18.83,5.81-25.93c3.87-7.1,9.15-12.48,15.84-16.15c6.69-3.66,14.19-5.5,22.51-5.5c8.28,0,15.75,1.83,22.42,5.5
		c6.67,3.66,11.95,9.05,15.84,16.15c3.89,7.1,5.84,15.74,5.84,25.93c0,10.14-1.95,18.76-5.84,25.84
		c-3.89,7.08-9.17,12.45-15.84,16.12C598.04,389.81,590.56,391.64,582.28,391.64z M582.28,372.08c4.43,0,8.24-1.08,11.43-3.23
		c3.19-2.15,5.63-5.3,7.33-9.44c1.7-4.14,2.55-9.21,2.55-15.22c0-6.04-0.85-11.15-2.55-15.31c-1.7-4.16-4.14-7.32-7.33-9.47
		c-3.19-2.15-7-3.23-11.43-3.23c-4.43,0-8.24,1.08-11.43,3.23c-3.19,2.15-5.64,5.31-7.36,9.47c-1.72,4.16-2.58,9.26-2.58,15.31
		c0,6,0.86,11.08,2.58,15.22c1.72,4.14,4.17,7.29,7.36,9.44C574.04,371,577.85,372.08,582.28,372.08z"/>
	<path d="M657.93,350.84v39.56h-22.11v-69.44h21.86v12.79h0.56c1.57-4.22,4.09-7.56,7.55-10c3.46-2.44,7.75-3.66,12.89-3.66
		c4.88,0,9.13,1.09,12.73,3.26c3.6,2.17,6.4,5.22,8.38,9.13s2.98,8.48,2.98,13.69v44.22h-22.11v-39.87c0-3.85-0.97-6.86-2.92-9.04
		c-1.95-2.17-4.68-3.26-8.2-3.26c-2.32,0-4.35,0.5-6.09,1.49c-1.74,0.99-3.1,2.43-4.07,4.32
		C658.41,345.92,657.93,348.19,657.93,350.84z"/>
	<path d="M735.31,297.86v92.54H713.2v-92.54H735.31z"/>
	<path d="M756.74,313.01c-3.11,0-5.78-1.03-8.01-3.11c-2.24-2.07-3.35-4.57-3.35-7.51c0-2.94,1.12-5.43,3.35-7.48
		c2.24-2.05,4.91-3.07,8.01-3.07c3.15,0,5.83,1.02,8.04,3.07c2.21,2.05,3.32,4.54,3.32,7.48c0,2.94-1.11,5.44-3.32,7.51
		C762.57,311.98,759.88,313.01,756.74,313.01z M745.75,390.4v-69.44h22.11v69.44H745.75z"/>
	<path d="M800.4,350.84v39.56h-22.11v-69.44h21.86v12.79h0.56c1.57-4.22,4.09-7.56,7.55-10c3.46-2.44,7.75-3.66,12.89-3.66
		c4.88,0,9.13,1.09,12.73,3.26c3.6,2.17,6.4,5.22,8.38,9.13s2.98,8.48,2.98,13.69v44.22h-22.11v-39.87c0-3.85-0.97-6.86-2.92-9.04
		c-1.95-2.17-4.68-3.26-8.2-3.26c-2.32,0-4.35,0.5-6.09,1.49c-1.74,0.99-3.1,2.43-4.07,4.32
		C800.88,345.92,800.4,348.19,800.4,350.84z"/>
	<path d="M888.16,391.7c-7.29,0-13.56-1.44-18.82-4.32c-5.26-2.88-9.28-6.99-12.08-12.33s-4.19-11.72-4.19-19.13
		c0-7.16,1.41-13.42,4.22-18.79c2.81-5.36,6.79-9.54,11.92-12.55c5.13-3,11.18-4.5,18.14-4.5c4.93,0,9.45,0.78,13.57,2.33
		c4.12,1.55,7.68,3.83,10.68,6.83c3,3,5.32,6.7,6.96,11.09c1.63,4.39,2.45,9.46,2.45,15.22v5.47H860.7v-12.73h49.81l-10.31,2.98
		c0-3.19-0.48-5.91-1.43-8.17c-0.95-2.26-2.36-4.01-4.22-5.25s-4.18-1.86-6.96-1.86c-2.77,0-5.11,0.62-7.02,1.86
		s-3.35,2.97-4.35,5.19c-0.99,2.22-1.49,4.83-1.49,7.86v9.13c0,3.23,0.57,6.02,1.71,8.38c1.14,2.36,2.75,4.17,4.84,5.43
		c2.09,1.26,4.5,1.89,7.24,1.89c1.9,0,3.64-0.27,5.22-0.81c1.57-0.54,2.92-1.34,4.04-2.39s1.97-2.33,2.55-3.82l20.25,0.56
		c-0.83,4.56-2.65,8.51-5.47,11.86c-2.82,3.35-6.5,5.95-11.05,7.79S894.2,391.7,888.16,391.7z"/>
	<path d="M575.08,508.96c-7.74,0-14.49-1.17-20.25-3.51c-5.76-2.34-10.24-5.88-13.45-10.62c-3.21-4.74-4.85-10.71-4.94-17.92h21.36
		c0.21,2.94,1.02,5.41,2.45,7.42c1.43,2.01,3.37,3.53,5.84,4.56c2.46,1.04,5.35,1.55,8.66,1.55c3.02,0,5.6-0.41,7.73-1.24
		c2.13-0.83,3.78-1.97,4.94-3.42c1.16-1.45,1.74-3.12,1.74-5.03c0-1.74-0.54-3.22-1.61-4.44c-1.08-1.22-2.7-2.3-4.88-3.23
		c-2.17-0.93-4.96-1.77-8.35-2.52l-9.75-2.24c-7.95-1.82-14.22-4.79-18.82-8.91c-4.6-4.12-6.89-9.72-6.89-16.8
		c0-5.71,1.55-10.72,4.66-15.03c3.11-4.31,7.38-7.66,12.83-10.06c5.44-2.4,11.69-3.6,18.72-3.6c7.16,0,13.39,1.21,18.69,3.63
		c5.3,2.42,9.4,5.82,12.3,10.19c2.9,4.37,4.39,9.43,4.47,15.18h-21.49c-0.25-3.31-1.56-5.89-3.94-7.73
		c-2.38-1.84-5.74-2.76-10.09-2.76c-2.9,0-5.31,0.37-7.24,1.12c-1.93,0.75-3.38,1.78-4.35,3.11c-0.97,1.33-1.46,2.82-1.46,4.47
		c0,1.82,0.54,3.38,1.61,4.66c1.08,1.28,2.64,2.36,4.69,3.23c2.05,0.87,4.46,1.61,7.24,2.24l7.89,1.8
		c4.55,0.99,8.59,2.32,12.11,3.97c3.52,1.66,6.49,3.62,8.91,5.9s4.25,4.91,5.5,7.89c1.24,2.98,1.86,6.31,1.86,10
		c0,5.88-1.46,10.92-4.38,15.12c-2.92,4.2-7.11,7.42-12.58,9.66C589.36,507.84,582.78,508.96,575.08,508.96z"/>
	<path d="M641.66,468.15v39.56h-22.11v-92.54h21.3v35.9h0.81c1.57-4.26,4.14-7.61,7.7-10.03c3.56-2.42,7.95-3.63,13.17-3.63
		c4.84,0,9.08,1.09,12.7,3.26c3.62,2.17,6.43,5.21,8.42,9.1c1.99,3.89,2.98,8.47,2.98,13.73v44.22h-22.11v-39.87
		c0-3.85-0.97-6.86-2.92-9.04c-1.95-2.17-4.7-3.26-8.26-3.26c-2.32,0-4.36,0.5-6.12,1.49c-1.76,0.99-3.13,2.43-4.1,4.32
		C642.14,463.24,641.66,465.5,641.66,468.15z"/>
	<path d="M729.47,509.02c-7.29,0-13.54-1.5-18.76-4.5s-9.22-7.18-12.02-12.55c-2.79-5.36-4.19-11.6-4.19-18.72
		c0-7.16,1.4-13.42,4.19-18.79c2.79-5.36,6.8-9.54,12.02-12.55c5.22-3,11.47-4.5,18.76-4.5c7.29,0,13.55,1.5,18.79,4.5
		c5.24,3,9.25,7.18,12.05,12.55c2.79,5.36,4.19,11.62,4.19,18.79c0,7.12-1.4,13.36-4.19,18.72c-2.79,5.36-6.81,9.54-12.05,12.55
		C743.02,507.52,736.76,509.02,729.47,509.02z M729.6,492.19c2.69,0,4.95-0.79,6.77-2.36c1.82-1.57,3.22-3.8,4.19-6.68
		c0.97-2.88,1.46-6.22,1.46-10.03c0-3.85-0.49-7.18-1.46-10c-0.97-2.81-2.37-5-4.19-6.55s-4.08-2.33-6.77-2.33s-4.99,0.78-6.89,2.33
		c-1.91,1.55-3.33,3.74-4.29,6.55c-0.95,2.82-1.43,6.15-1.43,10c0,3.81,0.48,7.15,1.43,10.03c0.95,2.88,2.38,5.1,4.29,6.68
		C724.61,491.4,726.91,492.19,729.6,492.19z"/>
	<path d="M772.33,533.67v-95.39h21.86v11.92h0.75c0.87-2.11,2.14-4.15,3.82-6.12c1.68-1.97,3.81-3.57,6.4-4.81
		c2.59-1.24,5.72-1.86,9.41-1.86c4.84,0,9.36,1.27,13.54,3.82c4.18,2.55,7.57,6.45,10.15,11.71c2.59,5.26,3.88,11.97,3.88,20.12
		c0,7.87-1.24,14.45-3.73,19.75s-5.83,9.28-10.03,11.92c-4.2,2.65-8.87,3.98-14,3.98c-3.48,0-6.5-0.58-9.07-1.74
		c-2.57-1.16-4.71-2.67-6.43-4.53c-1.72-1.86-3.03-3.87-3.94-6.02h-0.5v37.26H772.33z M806.73,491.5c2.73,0,5.04-0.77,6.92-2.3
		c1.88-1.53,3.31-3.68,4.29-6.46c0.97-2.77,1.46-6,1.46-9.69c0-3.73-0.49-6.97-1.46-9.72c-0.97-2.75-2.39-4.9-4.25-6.43
		c-1.86-1.53-4.18-2.3-6.96-2.3c-2.69,0-4.99,0.75-6.89,2.24c-1.91,1.49-3.37,3.61-4.38,6.37c-1.01,2.75-1.52,6.04-1.52,9.84
		c0,3.73,0.51,6.97,1.52,9.72c1.01,2.75,2.47,4.9,4.38,6.43C801.74,490.74,804.04,491.5,806.73,491.5z"/>
	<path d="M849.9,533.67v-95.39h21.86v11.92h0.75c0.87-2.11,2.14-4.15,3.82-6.12c1.68-1.97,3.81-3.57,6.4-4.81
		c2.59-1.24,5.72-1.86,9.41-1.86c4.84,0,9.36,1.27,13.54,3.82c4.18,2.55,7.57,6.45,10.15,11.71c2.59,5.26,3.88,11.97,3.88,20.12
		c0,7.87-1.24,14.45-3.73,19.75s-5.83,9.28-10.03,11.92c-4.2,2.65-8.87,3.98-14,3.98c-3.48,0-6.5-0.58-9.07-1.74
		c-2.57-1.16-4.71-2.67-6.43-4.53c-1.72-1.86-3.03-3.87-3.94-6.02h-0.5v37.26H849.9z M884.31,491.5c2.73,0,5.04-0.77,6.92-2.3
		c1.88-1.53,3.31-3.68,4.29-6.46c0.97-2.77,1.46-6,1.46-9.69c0-3.73-0.49-6.97-1.46-9.72c-0.97-2.75-2.39-4.9-4.25-6.43
		c-1.86-1.53-4.18-2.3-6.96-2.3c-2.69,0-4.99,0.75-6.89,2.24c-1.91,1.49-3.37,3.61-4.38,6.37c-1.01,2.75-1.52,6.04-1.52,9.84
		c0,3.73,0.51,6.97,1.52,9.72c1.01,2.75,2.47,4.9,4.38,6.43C879.32,490.74,881.61,491.5,884.31,491.5z"/>
	<path d="M938.46,430.33c-3.11,0-5.78-1.03-8.01-3.11c-2.24-2.07-3.35-4.57-3.35-7.51c0-2.94,1.12-5.43,3.35-7.48
		c2.24-2.05,4.91-3.07,8.01-3.07c3.15,0,5.83,1.02,8.04,3.07c2.21,2.05,3.32,4.54,3.32,7.48c0,2.94-1.11,5.44-3.32,7.51
		C944.29,429.29,941.61,430.33,938.46,430.33z M927.47,507.71v-69.43h22.11v69.43H927.47z"/>
	<path d="M982.12,468.15v39.56h-22.11v-69.43h21.86v12.79h0.56c1.57-4.22,4.09-7.56,7.55-10c3.46-2.44,7.75-3.67,12.89-3.67
		c4.88,0,9.13,1.09,12.73,3.26c3.6,2.17,6.4,5.22,8.38,9.13s2.98,8.48,2.98,13.69v44.22h-22.11v-39.87c0-3.85-0.97-6.86-2.92-9.04
		c-1.95-2.17-4.68-3.26-8.2-3.26c-2.32,0-4.35,0.5-6.09,1.49c-1.74,0.99-3.1,2.43-4.07,4.32
		C982.61,463.24,982.12,465.5,982.12,468.15z"/>
	<path d="M1069.57,535.16c-9.9,0-17.64-2.01-23.23-6.02c-5.59-4.02-8.78-9.07-9.56-15.15l20.87-1.18c0.37,1.45,1.09,2.7,2.14,3.76
		c1.06,1.06,2.45,1.87,4.19,2.45c1.74,0.58,3.79,0.87,6.15,0.87c3.73,0,6.8-0.9,9.22-2.7c2.42-1.8,3.63-4.92,3.63-9.35V495.6h-0.81
		c-0.87,2.11-2.19,4.02-3.97,5.71c-1.78,1.7-3.99,3.03-6.61,4.01c-2.63,0.97-5.66,1.46-9.1,1.46c-5.05,0-9.68-1.18-13.88-3.54
		s-7.56-6.03-10.06-11.02c-2.51-4.99-3.76-11.4-3.76-19.22c0-8.16,1.29-14.85,3.88-20.09c2.59-5.24,5.99-9.13,10.22-11.68
		c4.22-2.55,8.76-3.82,13.6-3.82c3.64,0,6.77,0.62,9.38,1.86s4.78,2.85,6.52,4.81c1.74,1.97,3.04,4.01,3.91,6.12h0.62v-11.92h21.8
		v69.75c0,5.84-1.48,10.79-4.44,14.84c-2.96,4.06-7.08,7.12-12.36,9.19C1082.64,534.13,1076.52,535.16,1069.57,535.16z
		 M1070.19,490.7c4.02,0,7.15-1.57,9.41-4.72c2.26-3.15,3.38-7.49,3.38-13.04c0-3.77-0.51-7.02-1.52-9.75s-2.47-4.84-4.38-6.33
		c-1.91-1.49-4.2-2.24-6.89-2.24c-2.73,0-5.05,0.77-6.96,2.3c-1.9,1.53-3.34,3.66-4.32,6.4c-0.97,2.73-1.46,5.94-1.46,9.63
		c0,3.69,0.5,6.85,1.49,9.5c0.99,2.65,2.43,4.69,4.32,6.12C1065.15,489.98,1067.46,490.7,1070.19,490.7z"/>
</g>
<g>
	<path d="M536.45,551.46h5.19l14.61,23.37h0.46l14.54-23.37h5.22l-17.78,27.93v21.32h-4.5V579.4L536.45,551.46z"/>
	<path d="M591.09,601.51c-3.2,0-6.02-0.81-8.46-2.43c-2.45-1.62-4.36-3.87-5.74-6.74c-1.38-2.88-2.07-6.18-2.07-9.9
		c0-3.79,0.69-7.12,2.07-10c1.38-2.88,3.29-5.12,5.74-6.74s5.27-2.43,8.46-2.43c3.2,0,6.01,0.81,8.45,2.43
		c2.43,1.62,4.35,3.87,5.74,6.74c1.39,2.88,2.08,6.21,2.08,10c0,3.72-0.69,7.02-2.07,9.9c-1.38,2.88-3.29,5.12-5.74,6.74
		C597.11,600.7,594.28,601.51,591.09,601.51z M591.09,597.61c2.58,0,4.75-0.69,6.53-2.07c1.77-1.38,3.12-3.22,4.05-5.54
		c0.93-2.31,1.39-4.84,1.39-7.57c0-2.78-0.46-5.32-1.39-7.64c-0.93-2.31-2.28-4.17-4.07-5.55c-1.78-1.39-3.96-2.08-6.51-2.08
		c-2.56,0-4.72,0.7-6.5,2.1c-1.77,1.4-3.13,3.25-4.07,5.55c-0.94,2.3-1.4,4.84-1.4,7.62c0,2.73,0.46,5.26,1.39,7.57
		c0.93,2.31,2.28,4.16,4.07,5.54C586.36,596.92,588.53,597.61,591.09,597.61z"/>
	<path d="M638.1,586.63v-22.88h4.26v36.96h-4.26v-6.15h-0.33c-0.88,1.9-2.26,3.48-4.13,4.74c-1.87,1.27-4.17,1.89-6.88,1.87
		c-2.36,0-4.45-0.51-6.26-1.54c-1.82-1.02-3.25-2.55-4.3-4.56c-1.05-2.02-1.57-4.48-1.57-7.39v-23.93h4.26v23.7
		c0,2.87,0.85,5.18,2.56,6.94s3.88,2.63,6.53,2.61c1.67,0,3.28-0.4,4.83-1.19c1.54-0.79,2.81-1.96,3.8-3.5
		C637.6,590.78,638.1,588.88,638.1,586.63z"/>
	<path d="M651.55,600.72v-36.96h4.13v5.72h0.33c0.75-1.87,2.04-3.38,3.88-4.51c1.84-1.13,3.92-1.7,6.23-1.7c0.35,0,0.74,0,1.17,0
		s0.79,0.01,1.07,0.03v4.33c-0.18-0.02-0.51-0.06-0.99-0.12s-1.02-0.08-1.62-0.08c-1.9,0-3.6,0.41-5.11,1.22
		c-1.51,0.82-2.69,1.93-3.55,3.35c-0.86,1.42-1.29,3.05-1.29,4.88v23.83H651.55z"/>
	<path d="M706.06,601.54c-3.35,0-6.26-0.55-8.73-1.65c-2.47-1.1-4.41-2.64-5.82-4.63s-2.2-4.28-2.38-6.88h4.59
		c0.18,1.96,0.82,3.61,1.93,4.96c1.11,1.34,2.57,2.36,4.38,3.06c1.81,0.69,3.81,1.04,6.02,1.04c2.47,0,4.66-0.41,6.58-1.24
		c1.92-0.83,3.42-1.98,4.51-3.45c1.09-1.48,1.64-3.21,1.64-5.19c0-1.67-0.44-3.07-1.31-4.2c-0.87-1.12-2.08-2.07-3.62-2.84
		c-1.54-0.77-3.34-1.46-5.39-2.05l-5.85-1.72c-3.86-1.12-6.85-2.71-8.99-4.76c-2.14-2.05-3.21-4.65-3.21-7.8
		c0-2.64,0.71-4.98,2.13-6.99c1.42-2.02,3.34-3.59,5.77-4.73c2.42-1.13,5.15-1.7,8.17-1.7c3.06,0,5.77,0.57,8.13,1.7
		c2.36,1.14,4.23,2.68,5.62,4.63s2.14,4.17,2.25,6.66h-4.4c-0.26-2.73-1.47-4.91-3.6-6.53c-2.14-1.62-4.85-2.43-8.13-2.43
		c-2.27,0-4.28,0.4-6.02,1.19s-3.1,1.88-4.08,3.27s-1.47,2.96-1.47,4.73c0,1.72,0.48,3.16,1.45,4.31s2.2,2.1,3.7,2.83
		c1.5,0.73,3.04,1.33,4.63,1.82l5.19,1.49c1.56,0.46,3.13,1.03,4.69,1.7c1.56,0.67,3,1.51,4.31,2.53c1.31,1.01,2.37,2.25,3.17,3.72
		c0.8,1.47,1.21,3.22,1.21,5.27c0,2.6-0.68,4.95-2.05,7.06c-1.37,2.11-3.32,3.77-5.87,4.99
		C712.69,600.93,709.63,601.54,706.06,601.54z"/>
	<path d="M735.25,551.46v49.25h-4.26v-49.25H735.25z"/>
	<path d="M758.79,601.51c-3.2,0-6.02-0.81-8.46-2.43c-2.45-1.62-4.36-3.87-5.74-6.74c-1.38-2.88-2.07-6.18-2.07-9.9
		c0-3.79,0.69-7.12,2.07-10c1.38-2.88,3.29-5.12,5.74-6.74c2.45-1.62,5.27-2.43,8.46-2.43s6.01,0.81,8.45,2.43
		c2.43,1.62,4.35,3.87,5.74,6.74c1.39,2.88,2.08,6.21,2.08,10c0,3.72-0.69,7.02-2.07,9.9c-1.38,2.88-3.29,5.12-5.74,6.74
		C764.8,600.7,761.98,601.51,758.79,601.51z M758.79,597.61c2.58,0,4.75-0.69,6.53-2.07c1.77-1.38,3.12-3.22,4.05-5.54
		c0.93-2.31,1.39-4.84,1.39-7.57c0-2.78-0.46-5.32-1.39-7.64c-0.93-2.31-2.28-4.17-4.07-5.55c-1.78-1.39-3.96-2.08-6.51-2.08
		s-4.72,0.7-6.5,2.1c-1.77,1.4-3.13,3.25-4.07,5.55s-1.41,4.84-1.41,7.62c0,2.73,0.46,5.26,1.39,7.57c0.93,2.31,2.28,4.16,4.07,5.54
		C754.06,596.92,756.23,597.61,758.79,597.61z"/>
	<path d="M796.4,615.33c-3.77,0-6.84-0.71-9.22-2.12s-4.11-3.17-5.19-5.29l3.5-2.31c0.51,0.95,1.21,1.87,2.12,2.76
		s2.07,1.63,3.5,2.21s3.2,0.88,5.29,0.88c3.28,0,5.93-0.82,7.95-2.45s3.02-4.17,3.02-7.6v-8.33h-0.43
		c-0.48,1.12-1.19,2.24-2.12,3.35c-0.93,1.11-2.14,2.04-3.64,2.78c-1.5,0.74-3.36,1.11-5.59,1.11c-2.95,0-5.57-0.73-7.85-2.18
		c-2.28-1.46-4.08-3.54-5.39-6.26c-1.31-2.72-1.97-5.96-1.97-9.7c0-3.75,0.64-7.04,1.92-9.87c1.28-2.83,3.06-5.05,5.36-6.64
		c2.29-1.6,4.96-2.4,8-2.4c2.27,0,4.15,0.4,5.65,1.21c1.5,0.8,2.7,1.79,3.6,2.96c0.9,1.17,1.61,2.3,2.12,3.41h0.46v-7.07h4.1v37.92
		c0,3.13-0.66,5.7-1.97,7.72c-1.31,2.02-3.11,3.51-5.4,4.48C801.95,614.84,799.33,615.33,796.4,615.33z M796.14,596.42
		c3.55,0,6.31-1.28,8.3-3.83s2.97-6.06,2.97-10.51c0-2.89-0.44-5.45-1.31-7.69c-0.87-2.24-2.15-4-3.83-5.29
		c-1.69-1.29-3.73-1.93-6.13-1.93c-2.49,0-4.58,0.67-6.28,2c-1.7,1.33-2.98,3.12-3.85,5.37c-0.87,2.25-1.31,4.76-1.31,7.54
		c0,2.82,0.44,5.31,1.32,7.47s2.18,3.85,3.88,5.06C791.62,595.81,793.69,596.42,796.14,596.42z"/>
	<path d="M831.15,601.54c-2.23,0-4.26-0.44-6.12-1.31s-3.32-2.14-4.41-3.8c-1.09-1.66-1.64-3.69-1.64-6.07
		c0-1.83,0.34-3.36,1.02-4.59c0.68-1.23,1.66-2.25,2.94-3.06c1.28-0.8,2.78-1.44,4.51-1.92c1.73-0.47,3.64-0.83,5.74-1.07
		c2.07-0.26,3.82-0.49,5.26-0.68c1.43-0.19,2.52-0.49,3.27-0.91c0.75-0.42,1.12-1.09,1.12-2.02v-0.86c0-2.53-0.75-4.52-2.25-5.97
		c-1.5-1.44-3.65-2.17-6.45-2.17c-2.67,0-4.84,0.58-6.51,1.75s-2.84,2.54-3.5,4.13l-4.1-1.49c0.84-2.01,1.99-3.61,3.47-4.83
		c1.48-1.21,3.13-2.09,4.96-2.63c1.83-0.54,3.68-0.81,5.55-0.81c1.41,0,2.88,0.19,4.4,0.56c1.52,0.38,2.94,1.01,4.26,1.92
		s2.4,2.17,3.22,3.79c0.83,1.62,1.24,3.66,1.24,6.13v25.06h-4.3v-5.85h-0.26c-0.48,1.08-1.23,2.13-2.25,3.16
		c-1.01,1.03-2.28,1.87-3.8,2.53S833.22,601.54,831.15,601.54z M831.74,597.64c2.27,0,4.24-0.5,5.9-1.5c1.66-1,2.95-2.35,3.85-4.05
		c0.9-1.7,1.36-3.55,1.36-5.55v-5.32c-0.33,0.31-0.87,0.58-1.6,0.83s-1.59,0.45-2.54,0.63c-0.96,0.18-1.93,0.33-2.91,0.46
		c-0.98,0.13-1.85,0.24-2.59,0.33c-2.07,0.26-3.85,0.67-5.34,1.22c-1.49,0.55-2.62,1.3-3.4,2.25c-0.78,0.95-1.17,2.17-1.17,3.67
		c0,2.23,0.8,3.96,2.4,5.19C827.27,597.03,829.29,597.64,831.74,597.64z"/>
	<path d="M860.6,577.64v23.07h-4.26v-36.96h4.13v5.85h0.43c0.86-1.92,2.2-3.45,4.03-4.59c1.83-1.15,4.1-1.72,6.81-1.72
		c2.49,0,4.68,0.52,6.56,1.55c1.88,1.04,3.36,2.56,4.41,4.56c1.06,2.01,1.59,4.47,1.59,7.4v23.9h-4.26v-23.64
		c0-3.02-0.85-5.42-2.55-7.21s-3.97-2.68-6.81-2.68c-1.94,0-3.67,0.42-5.19,1.27c-1.52,0.85-2.72,2.05-3.59,3.6
		C861.03,573.63,860.6,575.48,860.6,577.64z"/>
	<path d="M911.27,600.72v-49.25h4.5v22.58h27.97v-22.58h4.46v49.25h-4.46v-22.64h-27.97v22.64H911.27z"/>
	<path d="M973.19,601.51c-3.44,0-6.42-0.81-8.96-2.43c-2.53-1.62-4.49-3.86-5.85-6.73c-1.37-2.86-2.05-6.16-2.05-9.88
		s0.68-7.03,2.03-9.92c1.35-2.89,3.24-5.16,5.67-6.81c2.42-1.65,5.23-2.48,8.43-2.48c1.98,0,3.91,0.37,5.78,1.11
		s3.56,1.86,5.06,3.36c1.5,1.5,2.68,3.4,3.54,5.7s1.29,5.04,1.29,8.21v1.92h-28.86v-3.77h26.54l-1.95,1.45
		c0-2.69-0.46-5.09-1.37-7.21c-0.92-2.12-2.22-3.79-3.92-5.02c-1.7-1.23-3.74-1.85-6.12-1.85c-2.36,0-4.43,0.62-6.21,1.87
		s-3.17,2.9-4.15,4.96c-0.98,2.06-1.47,4.31-1.47,6.76v2.21c0,2.95,0.51,5.53,1.54,7.72c1.03,2.19,2.48,3.9,4.36,5.11
		c1.88,1.21,4.1,1.82,6.66,1.82c1.74,0,3.27-0.28,4.59-0.83s2.44-1.29,3.34-2.23s1.59-1.96,2.05-3.06l4.07,1.36
		c-0.57,1.54-1.49,2.97-2.76,4.28c-1.27,1.31-2.85,2.37-4.76,3.17C977.81,601.11,975.64,601.51,973.19,601.51z"/>
	<path d="M995.24,600.72v-36.96h4.13v5.72h0.33c0.75-1.87,2.04-3.38,3.88-4.51c1.84-1.13,3.92-1.7,6.23-1.7c0.35,0,0.74,0,1.17,0
		s0.79,0.01,1.07,0.03v4.33c-0.18-0.02-0.51-0.06-0.99-0.12s-1.02-0.08-1.62-0.08c-1.9,0-3.6,0.41-5.11,1.22
		c-1.51,0.82-2.69,1.93-3.55,3.35c-0.86,1.42-1.29,3.05-1.29,4.88v23.83H995.24z"/>
	<path d="M1031.07,601.51c-3.44,0-6.42-0.81-8.96-2.43c-2.53-1.62-4.49-3.86-5.85-6.73c-1.37-2.86-2.05-6.16-2.05-9.88
		s0.68-7.03,2.03-9.92c1.35-2.89,3.24-5.16,5.67-6.81c2.42-1.65,5.23-2.48,8.43-2.48c1.98,0,3.91,0.37,5.78,1.11
		s3.56,1.86,5.06,3.36c1.5,1.5,2.68,3.4,3.54,5.7s1.29,5.04,1.29,8.21v1.92h-28.86v-3.77h26.54l-1.95,1.45
		c0-2.69-0.46-5.09-1.37-7.21c-0.92-2.12-2.22-3.79-3.92-5.02c-1.7-1.23-3.74-1.85-6.12-1.85c-2.36,0-4.43,0.62-6.21,1.87
		s-3.17,2.9-4.15,4.96c-0.98,2.06-1.47,4.31-1.47,6.76v2.21c0,2.95,0.51,5.53,1.54,7.72c1.03,2.19,2.48,3.9,4.36,5.11
		c1.88,1.21,4.1,1.82,6.66,1.82c1.74,0,3.27-0.28,4.59-0.83s2.44-1.29,3.34-2.23s1.59-1.96,2.05-3.06l4.07,1.36
		c-0.57,1.54-1.49,2.97-2.76,4.28c-1.27,1.31-2.85,2.37-4.76,3.17C1035.69,601.11,1033.52,601.51,1031.07,601.51z"/>
</g>
</svg>
